# xmcd CD database file
#
# Track frame offsets:
#	150
#	18097
#	35946
#	57163
#	75791
#	95176
#	115651
#	136128
#	152369
#	176915
#	193173
#	206820
#
# Disc length: 2998 seconds
#
# Revision: 0
# Processed by: cddbd v1.5.2PL0 Copyright (c) Steve Scherf et al.
# Submitted via: CDex 1.51
#
DISCID=9b0bb40c
DTITLE=Marc Vee - Magic Moments
DYEAR=2000
DGENRE=Jazz
TTITLE0=Magic Moments
TTITLE1=Make Believe
TTITLE2=Magic City
TTITLE3=Pina Coladas
TTITLE4=Continental Cafe
TTITLE5=S. Bayshore Drive
TTITLE6=South by Southwest
TTITLE7=One More Chance
TTITLE8=After Andrew
TTITLE9=Sunrise Blvd
TTITLE10=Joy of Love
TTITLE11=Espanola
EXTD=YEAR: 2000
EXTT0=
EXTT1=
EXTT2=
EXTT3=
EXTT4=
EXTT5=
EXTT6=
EXTT7=
EXTT8=
EXTT9=
EXTT10=
EXTT11=
PLAYORDER=
